<svg xmlns="http://www.w3.org/2000/svg" version="1.1" xmlns:xlink="http://www.w3.org/1999/xlink" xmlns:svgjs="http://svgjs.dev/svgjs" width="1500" height="1500" viewBox="0 0 1500 1500"><rect width="1500" height="1500" fill="#ffffff"></rect><g transform="matrix(0.6666666666666666,0,0,0.6666666666666666,249.39393939393938,438.5856950067477)"><svg viewBox="0 0 396 247" data-background-color="#ffffff" preserveAspectRatio="xMidYMid meet" height="935" width="1500" xmlns="http://www.w3.org/2000/svg" xmlns:xlink="http://www.w3.org/1999/xlink"><g id="tight-bounds" transform="matrix(1,0,0,1,0.2400000000000091,-0.09999999999999432)"><svg viewBox="0 0 395.52 247.2" height="247.2" width="395.52"><g><svg></svg></g><g><svg viewBox="0 0 395.52 247.2" height="247.2" width="395.52"><g transform="matrix(1,0,0,1,75.54432,97.81676751873397)"><svg viewBox="0 0 244.43135999999998 51.56646496253204" height="51.56646496253204" width="244.43135999999998"><g><svg viewBox="0 0 244.43135999999998 51.56646496253204" height="51.56646496253204" width="244.43135999999998"><g><svg viewBox="0 0 244.43135999999998 51.56646496253204" height="51.56646496253204" width="244.43135999999998"><g><svg viewBox="0 0 244.43135999999998 51.56646496253204" height="51.56646496253204" width="244.43135999999998"><g id="textblocktransform"><svg viewBox="0 0 244.43135999999998 51.56646496253204" height="51.56646496253204" width="244.43135999999998" id="textblock"><g><svg viewBox="0 0 244.43135999999998 35.01658683153014" height="35.01658683153014" width="244.43135999999998"><g transform="matrix(1,0,0,1,0,0)"><svg width="244.43135999999998" viewBox="0.05 -35.45 252.72 36.21" height="35.01658683153014" data-palette-color="#2a2c35"><path d="M22-35.01L30-35.01 18.51 0 11.5 0 0.05-35.01 8.01-35.01 14.99-11.65 22-35.01ZM57.35-7.01L57.35 0 33.35 0 33.35-35.01 57.35-35.01 57.35-28 40.35-28 40.35-21 51.85-21 51.85-13.99 40.35-13.99 40.35-7.01 57.35-7.01ZM76.26-28L69.26-28 69.26-13.99 76.26-13.99Q77.7-13.99 78.97-14.54 80.24-15.09 81.2-16.04 82.15-16.99 82.7-18.27 83.25-19.56 83.25-21L83.25-21Q83.25-22.44 82.7-23.72 82.15-25 81.2-25.95 80.24-26.9 78.97-27.45 77.7-28 76.26-28L76.26-28ZM69.26-7.01L69.26 0 62.25 0 62.25-35.01 76.26-35.01Q78.19-35.01 79.98-34.51 81.76-34.01 83.31-33.09 84.86-32.18 86.14-30.9 87.42-29.61 88.34-28.05 89.25-26.49 89.75-24.71 90.25-22.92 90.25-21L90.25-21Q90.25-19.19 89.8-17.48 89.35-15.77 88.51-14.23 87.67-12.7 86.45-11.4 85.22-10.11 83.71-9.16L83.71-9.16 87.59 0 80.15 0 77.09-7.06 69.26-7.01ZM92.79-24.51L92.79-24.51Q92.79-26.68 93.62-28.59 94.45-30.49 95.88-31.92 97.31-33.35 99.21-34.18 101.12-35.01 103.29-35.01L103.29-35.01 119.35-35.01 119.35-28 103.29-28Q102.56-28 101.92-27.73 101.29-27.47 100.81-26.99 100.33-26.51 100.07-25.88 99.8-25.24 99.8-24.51L99.8-24.51Q99.8-23.78 100.07-23.13 100.33-22.49 100.81-22.01 101.29-21.53 101.92-21.26 102.56-21 103.29-21L103.29-21 110.3-21Q112.47-21 114.38-20.18 116.3-19.36 117.73-17.93 119.16-16.5 119.98-14.59 120.79-12.67 120.79-10.5L120.79-10.5Q120.79-8.33 119.98-6.42 119.16-4.52 117.73-3.09 116.3-1.66 114.38-0.83 112.47 0 110.3 0L110.3 0 94.74 0 94.74-7.01 110.3-7.01Q111.03-7.01 111.66-7.28 112.3-7.54 112.77-8.02 113.25-8.5 113.52-9.13 113.79-9.77 113.79-10.5L113.79-10.5Q113.79-11.23 113.52-11.87 113.25-12.5 112.77-12.98 112.3-13.45 111.66-13.72 111.03-13.99 110.3-13.99L110.3-13.99 103.29-13.99Q101.12-13.99 99.21-14.82 97.31-15.65 95.88-17.08 94.45-18.51 93.62-20.42 92.79-22.34 92.79-24.51ZM131.97-13.99L145.99-13.99 145.99-21Q145.99-22.44 145.44-23.72 144.89-25 143.94-25.95 142.98-26.9 141.7-27.45 140.42-28 138.98-28L138.98-28Q137.54-28 136.26-27.45 134.98-26.9 134.02-25.95 133.07-25 132.52-23.72 131.97-22.44 131.97-21L131.97-21 131.97-13.99ZM152.99-21L152.99 0 145.99 0 145.99-7.01 131.97-7.01 131.97 0 124.99 0 124.99-21Q124.99-23.9 126.09-26.45 127.19-29 129.08-30.91 130.97-32.81 133.52-33.91 136.07-35.01 138.98-35.01L138.98-35.01Q141.88-35.01 144.44-33.91 146.99-32.81 148.89-30.91 150.8-29 151.89-26.45 152.99-23.9 152.99-21L152.99-21ZM183.58-7.01L183.58 0 159.07 0 159.07-35.01 166.08-35.01 166.08-7.01 183.58-7.01ZM220.32-17.36L220.32-17.36Q220.32-14.87 219.67-12.56 219.03-10.25 217.86-8.24 216.68-6.23 215.02-4.57 213.36-2.91 211.36-1.72 209.36-0.54 207.04 0.11 204.72 0.76 202.23 0.76L202.23 0.76Q199.74 0.76 197.43 0.11 195.13-0.54 193.11-1.72 191.1-2.91 189.44-4.57 187.78-6.23 186.59-8.24 185.41-10.25 184.76-12.56 184.12-14.87 184.12-17.36L184.12-17.36Q184.12-19.85 184.76-22.17 185.41-24.49 186.59-26.49 187.78-28.49 189.44-30.15 191.1-31.81 193.11-32.98 195.13-34.16 197.43-34.8 199.74-35.45 202.23-35.45L202.23-35.45Q204.72-35.45 207.04-34.8 209.36-34.16 211.36-32.98 213.36-31.81 215.02-30.15 216.68-28.49 217.86-26.49 219.03-24.49 219.67-22.17 220.32-19.85 220.32-17.36ZM213.36-17.36L213.36-17.36Q213.36-19.65 212.49-21.69 211.61-23.73 210.1-25.23 208.6-26.73 206.56-27.61 204.53-28.49 202.23-28.49L202.23-28.49Q199.91-28.49 197.89-27.61 195.86-26.73 194.35-25.23 192.83-23.73 191.95-21.69 191.07-19.65 191.07-17.36L191.07-17.36Q191.07-15.06 191.95-13.05 192.83-11.04 194.35-9.52 195.86-8.01 197.89-7.13 199.91-6.25 202.23-6.25L202.23-6.25Q204.53-6.25 206.56-7.13 208.6-8.01 210.1-9.52 211.61-11.04 212.49-13.05 213.36-15.06 213.36-17.36ZM252.77-17.36L252.77-3.54Q250.32-1.46 247.32-0.35 244.32 0.76 241.07 0.76L241.07 0.76Q238.58 0.76 236.27 0.11 233.97-0.54 231.96-1.72 229.96-2.91 228.3-4.55 226.64-6.2 225.47-8.22 224.3-10.23 223.65-12.55 223-14.87 223-17.36L223-17.36Q223-19.85 223.65-22.14 224.3-24.44 225.47-26.45 226.64-28.47 228.3-30.11 229.96-31.76 231.96-32.93 233.97-34.11 236.27-34.75 238.58-35.4 241.07-35.4L241.07-35.4Q244.32-35.4 247.32-34.29 250.32-33.18 252.77-31.1L252.77-31.1 249.1-25Q247.52-26.61 245.44-27.53 243.37-28.44 241.07-28.44L241.07-28.44Q238.78-28.44 236.76-27.56 234.75-26.68 233.23-25.18 231.72-23.68 230.84-21.67 229.96-19.65 229.96-17.36L229.96-17.36Q229.96-15.04 230.84-13.01 231.72-10.99 233.23-9.47 234.75-7.96 236.76-7.08 238.78-6.2 241.07-6.2L241.07-6.2Q242.39-6.2 243.63-6.52 244.88-6.84 246-7.4L246-7.4 246-17.36 252.77-17.36Z" opacity="1" transform="matrix(1,0,0,1,0,0)" fill="#2a2c35" class="wordmark-text-0" data-fill-palette-color="primary" id="text-0"></path></svg></g></svg></g><g transform="matrix(1,0,0,1,102.78338688,43.28316258437045)"><svg viewBox="0 0 141.64797312 8.283302378161586" height="8.283302378161586" width="141.64797312"><g transform="matrix(1,0,0,1,0,0)"><svg width="141.64797312" viewBox="1.15 -34.85 808.76 47.300000000000004" height="8.283302378161586" data-palette-color="#2a2c35"><path d="M16 0.3L16 0.3Q14.2-4.45 12.4-9.08 10.6-13.7 8.9-17.98 7.2-22.25 5.65-25.75L5.65-25.75Q4.6-28.2 4-29.4 3.4-30.6 2.85-31 2.3-31.4 1.4-31.55L1.4-31.55Q1.25-32.15 1.2-32.77 1.15-33.4 1.15-33.95L1.15-33.95Q1.65-33.9 2.43-33.88 3.2-33.85 4.08-33.83 4.95-33.8 5.85-33.8 6.75-33.8 7.5-33.8L7.5-33.8Q9.05-33.8 10.73-33.85 12.4-33.9 13.95-33.95L13.95-33.95Q13.95-33.35 13.88-32.73 13.8-32.1 13.65-31.55L13.65-31.55Q12.1-31.4 11.33-30.98 10.55-30.55 10.7-29.45 10.85-28.35 11.8-26.1L11.8-26.1Q13.1-23 14.35-19.83 15.6-16.65 16.8-13.4 18-10.15 19.25-6.6L19.25-6.6 18.35-6.6Q19.8-9.85 21.1-12.95 22.4-16.05 23.63-19.25 24.85-22.45 26.05-25.8L26.05-25.8Q26.95-28.4 26.58-29.85 26.2-31.3 24.05-31.55L24.05-31.55Q23.9-32.1 23.83-32.75 23.75-33.4 23.8-33.95L23.8-33.95Q24.5-33.9 25.23-33.88 25.95-33.85 26.73-33.83 27.5-33.8 28.25-33.8L28.25-33.8Q29.4-33.8 30.85-33.85 32.3-33.9 33.35-33.95L33.35-33.95Q33.35-33.3 33.27-32.7 33.2-32.1 33.05-31.55L33.05-31.55Q31.55-31.2 30.65-29.75 29.75-28.3 28.75-25.75L28.75-25.75Q26.3-19.35 23.68-12.9 21.05-6.45 18.35 0.1L18.35 0.1Q17.8 0.2 17.23 0.25 16.65 0.3 16 0.3ZM47.4 0.45L47.4 0.45Q43.65 0.45 41.22-1.15 38.8-2.75 37.57-5.45 36.35-8.15 36.35-11.4L36.35-11.4Q36.35-14.7 37.65-17.4 38.95-20.1 41.37-21.73 43.8-23.35 47.1-23.35L47.1-23.35Q50.45-23.35 52.5-21.95 54.55-20.55 55.57-18.2 56.6-15.85 56.75-12.9L56.75-12.9Q56.55-11.75 55.9-11L55.9-11Q54.9-11 53.17-11 51.45-11 49.32-10.98 47.2-10.95 44.97-10.88 42.75-10.8 40.8-10.7L40.8-10.7 40.8-13.45 51.1-13.45Q51.1-16.75 49.97-18.75 48.85-20.75 46.75-20.75L46.75-20.75Q45.55-20.75 44.45-20 43.35-19.25 42.65-17.48 41.95-15.7 41.95-12.55L41.95-12.55Q41.95-10.05 42.6-7.78 43.25-5.5 44.8-4.08 46.35-2.65 49.2-2.65L49.2-2.65Q50.85-2.65 52.47-3.35 54.1-4.05 55.35-5.35L55.35-5.35Q55.75-5.15 56.12-4.6 56.5-4.05 56.55-3.55L56.55-3.55Q54.8-1.4 52.52-0.48 50.25 0.45 47.4 0.45ZM69.5-11.35L69.5-7.75Q69.5-5.6 69.95-4.45 70.4-3.3 71.42-2.85 72.45-2.4 74.1-2.25L74.1-2.25Q74.25-1.8 74.32-1.2 74.4-0.6 74.4 0.15L74.4 0.15Q73.6 0.1 72.5 0.08 71.4 0.05 70.15 0.03 68.9 0 67.65 0L67.65 0Q65.75 0 63.7 0.03 61.65 0.05 60.5 0.15L60.5 0.15Q60.5-0.65 60.55-1.25 60.6-1.85 60.8-2.25L60.8-2.25Q62.15-2.35 62.87-2.75 63.6-3.15 63.9-4.1 64.2-5.05 64.2-6.8L64.2-6.8 64.2-11.35 69.5-11.35ZM68.6-15.3L69.5-14.65 69.5-10.6 64.2-10.6 64.2-16.15 69.5-21Q69.5-19.45 69.2-18.1 68.9-16.75 68.6-15.3L68.6-15.3ZM69.5-11.9L68.4-15Q68.9-16.35 69.22-17.32 69.55-18.3 69.9-18.9L69.9-18.9Q71-20.65 72.52-21.8 74.05-22.95 76.05-22.95L76.05-22.95Q77.95-22.95 79.5-21.75L79.5-21.75Q79.4-20.9 79.3-19.78 79.2-18.65 79.17-17.53 79.15-16.4 79.15-15.45L79.15-15.45Q78.6-15.25 77.7-15.1 76.8-14.95 75.9-14.95L75.9-14.95Q75.8-17.2 75.17-17.98 74.55-18.75 73.55-18.75L73.55-18.75Q72.75-18.75 71.77-17.8 70.8-16.85 70.15-15.3 69.5-13.75 69.5-11.9L69.5-11.9ZM69.5-21L64.2-10.6 64.2-15.8Q64.2-17.1 63.97-17.88 63.75-18.65 62.95-19.05 62.15-19.45 60.5-19.5L60.5-19.5Q60.5-20.1 60.6-20.65 60.7-21.2 60.95-21.65L60.95-21.65Q62.85-21.75 65-22.25 67.15-22.75 68.3-23.35L68.3-23.35Q68.8-23.15 69.15-22.65 69.5-22.15 69.5-21L69.5-21ZM98.74-21.65L98.74-21.65Q98.69-20.4 98.69-19.05 98.69-17.7 98.89-16.4L98.89-16.4Q98.34-16.1 97.57-15.93 96.79-15.75 95.99-15.75L95.99-15.75Q95.89-17.1 95.22-18.3 94.54-19.5 93.39-20.25 92.24-21 90.64-21L90.64-21Q89.19-21 88.34-20.3 87.49-19.6 87.49-18.45L87.49-18.45Q87.49-17.65 87.84-17.03 88.19-16.4 89.44-15.68 90.69-14.95 93.29-13.9L93.29-13.9Q96.04-12.9 97.59-11.88 99.14-10.85 99.82-9.63 100.49-8.4 100.49-6.6L100.49-6.6Q100.49-4.5 99.27-2.9 98.04-1.3 95.87-0.43 93.69 0.45 90.94 0.45L90.94 0.45Q87.89 0.45 86.07-0.03 84.24-0.5 82.44-1.35L82.44-1.35Q82.59-2.2 82.62-3.35 82.64-4.5 82.64-5.63 82.64-6.75 82.54-7.55L82.54-7.55Q82.99-7.9 83.84-8.05 84.69-8.2 85.49-8.2L85.49-8.2Q85.89-5.15 87.37-3.65 88.84-2.15 91.29-2.15L91.29-2.15Q93.14-2.15 94.22-2.98 95.29-3.8 95.29-5.15L95.29-5.15Q95.29-6 94.87-6.65 94.44-7.3 93.34-7.93 92.24-8.55 90.04-9.4L90.04-9.4Q87.44-10.45 85.82-11.4 84.19-12.35 83.44-13.68 82.69-15 82.69-17.05L82.69-17.05Q82.69-18.65 83.49-19.85 84.29-21.05 85.57-21.83 86.84-22.6 88.37-22.98 89.89-23.35 91.29-23.35L91.29-23.35Q93.69-23.35 95.44-22.93 97.19-22.5 98.74-21.65ZM119.84 0.45L119.84 0.45Q119.24 0.2 118.89-0.48 118.54-1.15 118.54-2.5L118.54-2.5Q118.54-3 118.62-3.68 118.69-4.35 118.84-4.95L118.84-4.95 118.99-4.95Q118.79-4 118.22-3.05 117.64-2.1 116.79-1.35L116.79-1.35Q115.89-0.6 114.54-0.13 113.19 0.35 111.34 0.35L111.34 0.35Q108.14 0.35 106.42-1.07 104.69-2.5 104.69-5.05L104.69-5.05Q104.69-7 105.62-8.38 106.54-9.75 108.02-10.68 109.49-11.6 111.24-12.15 112.99-12.7 114.72-13.03 116.44-13.35 117.84-13.55L117.84-13.55Q117.84-15.45 117.77-16.55 117.69-17.65 117.47-18.32 117.24-19 116.79-19.5L116.79-19.5Q116.19-20.2 115.44-20.55 114.69-20.9 113.79-20.9L113.79-20.9Q112.19-20.9 111.29-19.93 110.39-18.95 109.99-17.63 109.59-16.3 109.49-15.15L109.49-15.15Q108.79-15.15 107.89-15.25 106.99-15.35 106.44-15.55L106.44-15.55Q106.54-16.85 106.52-18.4 106.49-19.95 106.19-21.15L106.19-21.15Q108.29-22.2 110.69-22.78 113.09-23.35 115.14-23.35L115.14-23.35Q117.29-23.35 118.74-22.8 120.19-22.25 120.99-21.35L120.99-21.35Q122.24-20.15 122.69-18.18 123.14-16.2 123.14-12.8L123.14-12.8 123.14-7.65Q123.14-6.2 123.37-5.35 123.59-4.5 124.24-4.13 124.89-3.75 126.19-3.7L126.19-3.7Q126.24-3.1 126.17-2.4 126.09-1.7 125.84-1.1L125.84-1.1Q124.44-1.05 122.79-0.65 121.14-0.25 119.84 0.45ZM113.04-2.8L113.04-2.8Q114.14-2.8 115.24-3.53 116.34-4.25 117.09-5.73 117.84-7.2 117.84-9.6L117.84-9.6 117.84-11.35Q116.54-11.15 115.19-10.85 113.84-10.55 112.72-10 111.59-9.45 110.92-8.55 110.24-7.65 110.24-6.15L110.24-6.15Q110.24-4.4 111.09-3.6 111.94-2.8 113.04-2.8ZM144.24-2.5L144.64-2.5Q147.29-2.5 148.81-3.1 150.34-3.7 151.31-5.13 152.29-6.55 153.04-8.85L153.04-8.85Q153.94-8.65 154.59-8.35 155.24-8.05 155.69-7.6L155.69-7.6Q155.14-5.9 154.76-3.83 154.39-1.75 154.14 0.1L154.14 0.1Q153.14 0.05 151.44 0.05 149.74 0.05 147.79 0.03 145.84 0 143.94 0L143.94 0Q142.54 0 140.66 0 138.79 0 136.81 0.03 134.84 0.05 133.19 0.08 131.54 0.1 130.59 0.15L130.59 0.15Q130.59-0.6 130.64-1.23 130.69-1.85 130.84-2.25L130.84-2.25Q132.19-2.35 132.94-2.78 133.69-3.2 134.01-4.25 134.34-5.3 134.34-7.3L134.34-7.3 134.34-27Q134.34-28.8 134.04-29.73 133.74-30.65 132.99-31.05 132.24-31.45 130.89-31.55L130.89-31.55Q130.74-32 130.69-32.65 130.64-33.3 130.64-33.95L130.64-33.95Q131.74-33.9 132.86-33.88 133.99-33.85 135.09-33.83 136.19-33.8 137.09-33.8L137.09-33.8Q138.19-33.8 139.29-33.83 140.39-33.85 141.46-33.88 142.54-33.9 143.54-33.95L143.54-33.95Q143.54-33.25 143.49-32.63 143.44-32 143.29-31.55L143.29-31.55Q141.99-31.45 141.21-31.05 140.44-30.65 140.14-29.68 139.84-28.7 139.84-26.85L139.84-26.85 139.84-7.3Q139.84-5.4 140.19-4.35 140.54-3.3 141.51-2.9 142.49-2.5 144.24-2.5L144.24-2.5ZM170.19 0.45L170.19 0.45Q166.64 0.45 164.01-1.03 161.39-2.5 159.96-5.15 158.54-7.8 158.54-11.4L158.54-11.4Q158.54-14.9 160.06-17.6 161.59-20.3 164.24-21.83 166.89-23.35 170.24-23.35L170.24-23.35Q173.99-23.35 176.59-21.85 179.19-20.35 180.54-17.7 181.89-15.05 181.89-11.5L181.89-11.5Q181.89-8.05 180.44-5.33 178.99-2.6 176.36-1.07 173.74 0.45 170.19 0.45ZM170.69-2.2L170.69-2.2Q173.49-2.2 174.84-4.58 176.19-6.95 176.19-10.75L176.19-10.75Q176.19-13.85 175.31-16.13 174.44-18.4 172.96-19.58 171.49-20.75 169.74-20.75L169.74-20.75Q166.99-20.75 165.64-18.45 164.29-16.15 164.29-12.55L164.29-12.55Q164.29-9.35 165.06-7 165.84-4.65 167.29-3.43 168.74-2.2 170.69-2.2ZM194.68 12.45L194.68 12.45Q191.48 12.45 189.51 11.68 187.53 10.9 186.63 9.43 185.73 7.95 185.73 5.85L185.73 5.85Q185.73 3.95 186.78 2.55 187.83 1.15 189.73 0.4L189.73 0.4 192.48 0.7Q191.33 1.65 190.91 2.58 190.48 3.5 190.48 4.75L190.48 4.75Q190.48 7.15 191.73 8.38 192.98 9.6 195.98 9.6L195.98 9.6Q199.23 9.6 201.08 8.08 202.93 6.55 202.93 4.5L202.93 4.5Q202.93 3.35 202.36 2.68 201.78 2 200.13 1.68 198.48 1.35 195.28 1.35L195.28 1.35Q193.08 1.35 191.53 1.13 189.98 0.9 188.98 0.38 187.98-0.15 187.53-1.03 187.08-1.9 187.08-3.25L187.08-3.25Q187.08-5.05 188.08-6.6 189.08-8.15 190.58-9.35L190.58-9.35 192.88-8.05Q191.98-7.3 191.56-6.63 191.13-5.95 191.13-5.4L191.13-5.4Q191.13-4.5 191.71-4.08 192.28-3.65 193.91-3.53 195.53-3.4 198.53-3.4L198.53-3.4Q201.78-3.4 203.78-2.85 205.78-2.3 206.73-1.07 207.68 0.15 207.68 2.3L207.68 2.3Q207.68 4.1 206.73 5.93 205.78 7.75 204.06 9.2 202.33 10.65 199.93 11.55 197.53 12.45 194.68 12.45ZM196.03-6.95L196.03-6.95Q193.43-6.95 191.23-7.85 189.03-8.75 187.76-10.55 186.48-12.35 186.48-15.05L186.48-15.05Q186.48-17.45 187.53-19.3 188.58-21.15 190.68-22.25 192.78-23.35 195.83-23.35L195.83-23.35Q198.48-23.35 200.31-22.53 202.13-21.7 203.33-20.43 204.53-19.15 205.06-17.75 205.58-16.35 205.58-15.2L205.58-15.2Q205.58-12.95 204.51-11.05 203.43-9.15 201.31-8.05 199.18-6.95 196.03-6.95ZM196.63-9.45L196.63-9.45Q198.23-9.45 199.23-10.78 200.23-12.1 200.23-14.65L200.23-14.65Q200.23-17.3 199.01-19.15 197.78-21 195.53-21L195.53-21Q193.63-21 192.73-19.4 191.83-17.8 191.83-15.7L191.83-15.7Q191.83-12.7 193.11-11.08 194.38-9.45 196.63-9.45ZM208.13-19.6L208.13-19.6Q207.33-19.8 206.26-20 205.18-20.2 204.16-20.35 203.13-20.5 202.33-20.55L202.33-20.55 198.43-22.9 207.73-22.9Q207.98-22.2 208.06-21.33 208.13-20.45 208.13-19.6ZM223.73-14.8L237.88-14.8Q237.88-13.95 237.73-13.03 237.58-12.1 237.23-11.3L237.23-11.3Q235.83-11.3 233.95-11.28 232.08-11.25 230.08-11.23 228.08-11.2 226.23-11.18 224.38-11.15 222.93-11.05L222.93-11.05Q222.93-11.95 223.15-13 223.38-14.05 223.73-14.8L223.73-14.8ZM271.92-3.6L271.92-3.6Q270.57-1.6 268.52-0.58 266.47 0.45 263.62 0.45L263.62 0.45Q260.82 0.45 258.37-0.88 255.92-2.2 254.35-4.83 252.77-7.45 252.77-11.35L252.77-11.35Q252.77-14.35 254.02-17.1 255.27-19.85 257.67-21.6 260.07-23.35 263.52-23.35L263.52-23.35Q265.97-23.35 267.92-22.8 269.87-22.25 271.32-21.15L271.32-21.15Q271.12-19.7 271.02-18.28 270.92-16.85 270.92-15.3L270.92-15.3Q270.42-15.05 269.62-14.95 268.82-14.85 268.17-14.85L268.17-14.85Q267.92-17.75 266.62-19.28 265.32-20.8 263.22-20.8L263.22-20.8Q260.92-20.8 259.55-18.53 258.17-16.25 258.17-12.1L258.17-12.1Q258.17-9.7 258.97-7.53 259.77-5.35 261.35-4 262.92-2.65 265.22-2.65L265.22-2.65Q266.82-2.65 268.22-3.35 269.62-4.05 270.67-5.3L270.67-5.3Q271.12-5.05 271.45-4.6 271.77-4.15 271.92-3.6ZM284.87 0.2L284.87 0.2Q281.42 0.2 279.5-1.75 277.57-3.7 277.57-8.75L277.57-8.75 277.57-15.8Q277.57-17.7 277.07-18.57 276.57-19.45 274.32-19.5L274.32-19.5Q274.32-20.1 274.4-20.63 274.47-21.15 274.72-21.65L274.72-21.65Q276.57-21.75 278.55-22.25 280.52-22.75 281.67-23.35L281.67-23.35Q282.17-23.15 282.52-22.65 282.87-22.15 282.87-21L282.87-21 282.87-9.9Q282.87-6.55 283.72-4.85 284.57-3.15 286.72-3.15L286.72-3.15Q289.07-3.15 290.67-5.2 292.27-7.25 292.27-11.55L292.27-11.55 292.27-16.05Q292.27-17.95 291.65-18.82 291.02-19.7 288.57-19.75L288.57-19.75Q288.57-20.35 288.62-20.88 288.67-21.4 288.97-21.9L288.97-21.9Q291.17-22 293.2-22.43 295.22-22.85 296.37-23.35L296.37-23.35Q296.87-23.15 297.22-22.65 297.57-22.15 297.57-21L297.57-21 297.57-6.65 292.97-4.8Q292.72-4.1 292.27-3.45 291.82-2.8 291.22-2.25L291.22-2.25Q289.97-1.05 288.47-0.43 286.97 0.2 284.87 0.2ZM294.07 0.45L294.07 0.45Q293.47 0.2 293.1-0.33 292.72-0.85 292.72-2.45L292.72-2.45Q292.72-3.05 292.82-4.08 292.92-5.1 293.22-6.7L293.22-6.7 297.57-7.25Q297.57-6 297.77-5.2 297.97-4.4 298.62-4.05 299.27-3.7 300.62-3.7L300.62-3.7Q300.62-3.1 300.57-2.4 300.52-1.7 300.27-1.1L300.27-1.1Q298.87-1.05 297.12-0.65 295.37-0.25 294.07 0.45ZM320.67-21.65L320.67-21.65Q320.62-20.4 320.62-19.05 320.62-17.7 320.82-16.4L320.82-16.4Q320.27-16.1 319.49-15.93 318.72-15.75 317.92-15.75L317.92-15.75Q317.82-17.1 317.14-18.3 316.47-19.5 315.32-20.25 314.17-21 312.57-21L312.57-21Q311.12-21 310.27-20.3 309.42-19.6 309.42-18.45L309.42-18.45Q309.42-17.65 309.77-17.03 310.12-16.4 311.37-15.68 312.62-14.95 315.22-13.9L315.22-13.9Q317.97-12.9 319.52-11.88 321.07-10.85 321.74-9.63 322.42-8.4 322.42-6.6L322.42-6.6Q322.42-4.5 321.19-2.9 319.97-1.3 317.79-0.43 315.62 0.45 312.87 0.45L312.87 0.45Q309.82 0.45 307.99-0.03 306.17-0.5 304.37-1.35L304.37-1.35Q304.52-2.2 304.54-3.35 304.57-4.5 304.57-5.63 304.57-6.75 304.47-7.55L304.47-7.55Q304.92-7.9 305.77-8.05 306.62-8.2 307.42-8.2L307.42-8.2Q307.82-5.15 309.29-3.65 310.77-2.15 313.22-2.15L313.22-2.15Q315.07-2.15 316.14-2.98 317.22-3.8 317.22-5.15L317.22-5.15Q317.22-6 316.79-6.65 316.37-7.3 315.27-7.93 314.17-8.55 311.97-9.4L311.97-9.4Q309.37-10.45 307.74-11.4 306.12-12.35 305.37-13.68 304.62-15 304.62-17.05L304.62-17.05Q304.62-18.65 305.42-19.85 306.22-21.05 307.49-21.83 308.77-22.6 310.29-22.98 311.82-23.35 313.22-23.35L313.22-23.35Q315.62-23.35 317.37-22.93 319.12-22.5 320.67-21.65ZM334.96 0.45L334.96 0.45Q331.87 0.45 330.34-1.15 328.81-2.75 328.81-6.4L328.81-6.4 328.81-19.3Q328.06-19.55 327.24-19.73 326.42-19.9 325.21-19.95L325.21-19.95Q325.21-20.65 325.31-21.2 325.42-21.75 325.67-22.4L325.67-22.4 328.81-22.4 328.81-28.85Q330.01-29.1 331.19-29.7 332.37-30.3 333.17-31L333.17-31Q333.71-30.8 333.92-30.35 334.12-29.9 334.12-28.25L334.12-28.25 334.12-22.4 340.51-22.4Q340.51-21.8 340.42-21.15 340.31-20.5 340.06-19.9L340.06-19.9Q338.26-19.9 336.79-19.7 335.31-19.5 334.12-19.25L334.12-19.25 334.12-7.4Q334.12-5.65 334.44-4.58 334.76-3.5 335.39-3 336.01-2.5 336.92-2.5L336.92-2.5Q337.92-2.5 338.69-2.78 339.46-3.05 340.17-3.6L340.17-3.6Q340.81-2.8 340.92-1.7L340.92-1.7Q340.06-0.8 338.37-0.18 336.67 0.45 334.96 0.45ZM355.76 0.45L355.76 0.45Q352.21 0.45 349.59-1.03 346.96-2.5 345.54-5.15 344.11-7.8 344.11-11.4L344.11-11.4Q344.11-14.9 345.64-17.6 347.16-20.3 349.81-21.83 352.46-23.35 355.81-23.35L355.81-23.35Q359.56-23.35 362.16-21.85 364.76-20.35 366.11-17.7 367.46-15.05 367.46-11.5L367.46-11.5Q367.46-8.05 366.01-5.33 364.56-2.6 361.94-1.07 359.31 0.45 355.76 0.45ZM356.26-2.2L356.26-2.2Q359.06-2.2 360.41-4.58 361.76-6.95 361.76-10.75L361.76-10.75Q361.76-13.85 360.89-16.13 360.01-18.4 358.54-19.58 357.06-20.75 355.31-20.75L355.31-20.75Q352.56-20.75 351.21-18.45 349.86-16.15 349.86-12.55L349.86-12.55Q349.86-9.35 350.64-7 351.41-4.65 352.86-3.43 354.31-2.2 356.26-2.2ZM371.21 0.15L371.21 0.15Q371.21-0.6 371.28-1.2 371.36-1.8 371.51-2.25L371.51-2.25Q373.51-2.35 374.21-3.23 374.91-4.1 374.91-6.6L374.91-6.6 374.91-15.7Q374.91-17.05 374.68-17.85 374.46-18.65 373.66-19.05 372.86-19.45 371.21-19.5L371.21-19.5Q371.21-20.1 371.31-20.63 371.41-21.15 371.66-21.65L371.66-21.65Q372.71-21.7 374.11-21.98 375.51-22.25 376.81-22.63 378.11-23 378.81-23.35L378.81-23.35Q379.26-23.2 379.63-22.7 380.01-22.2 380.01-21.15L380.01-21.15Q380.01-20.35 379.88-19.3 379.76-18.25 379.46-16.15L379.46-16.15 379.01-16.1Q379.76-18.15 380.11-18.88 380.46-19.6 380.71-19.85L380.71-19.85Q381.56-21 383.43-22.18 385.31-23.35 387.81-23.35L387.81-23.35Q389.96-23.35 391.73-22.38 393.51-21.4 394.36-19.2L394.36-19.2Q394.66-18.5 394.66-17.4L394.66-17.4 394.46-17.4Q395.01-18.85 395.71-19.7L395.71-19.7Q396.56-20.8 398.36-21.95 400.16-23.1 402.66-23.1L402.66-23.1Q404.71-23.1 406.36-22.3 408.01-21.5 408.98-19.7 409.96-17.9 409.96-14.85L409.96-14.85 409.96-7Q409.96-5.1 410.26-4.1 410.56-3.1 411.18-2.73 411.81-2.35 412.86-2.25L412.86-2.25Q413.01-1.75 413.06-1.18 413.11-0.6 413.11 0.15L413.11 0.15Q412.01 0.05 410.51 0.03 409.01 0 407.46 0L407.46 0Q406.41 0 405.28 0.03 404.16 0.05 403.08 0.08 402.01 0.1 401.16 0.15L401.16 0.15Q401.16-0.65 401.21-1.23 401.26-1.8 401.41-2.25L401.41-2.25Q402.71-2.35 403.43-2.75 404.16-3.15 404.43-4.15 404.71-5.15 404.71-6.9L404.71-6.9 404.71-13.7Q404.71-17.15 403.53-18.38 402.36-19.6 400.46-19.6L400.46-19.6Q399.16-19.6 397.91-18.78 396.66-17.95 395.86-16.13 395.06-14.3 395.06-11.35L395.06-11.35 395.06-6.65Q395.06-4.1 395.81-3.23 396.56-2.35 398.41-2.25L398.41-2.25Q398.56-1.8 398.63-1.2 398.71-0.6 398.71 0.15L398.71 0.15Q397.46 0.05 395.76 0.03 394.06 0 392.51 0L392.51 0Q390.91 0 389.26 0.03 387.61 0.05 386.26 0.15L386.26 0.15Q386.26-0.6 386.31-1.2 386.36-1.8 386.51-2.25L386.51-2.25Q387.81-2.35 388.53-2.75 389.26-3.15 389.56-4.15 389.86-5.15 389.86-7L389.86-7 389.86-14Q389.86-17.35 388.66-18.6 387.46-19.85 385.51-19.85L385.51-19.85Q384.26-19.85 383.01-18.98 381.76-18.1 380.96-16.28 380.16-14.45 380.16-11.55L380.16-11.55 380.16-6.65Q380.16-4.15 380.86-3.25 381.56-2.35 383.51-2.25L383.51-2.25Q383.66-1.75 383.71-1.18 383.76-0.6 383.76 0.15L383.76 0.15Q382.96 0.1 381.83 0.08 380.71 0.05 379.56 0.03 378.41 0 377.46 0L377.46 0Q376.56 0 375.38 0.03 374.21 0.05 373.11 0.08 372.01 0.1 371.21 0.15ZM416.66 0.15L416.66 0.15Q416.66-0.45 416.73-1.1 416.81-1.75 416.96-2.25L416.96-2.25Q418.96-2.3 419.66-3.2 420.36-4.1 420.36-6.6L420.36-6.6 420.36-15.95Q420.36-17.15 420.13-17.93 419.91-18.7 419.11-19.1 418.31-19.5 416.61-19.5L416.61-19.5Q416.61-20.1 416.73-20.65 416.86-21.2 417.11-21.65L417.11-21.65Q418.11-21.65 419.61-21.9 421.11-22.15 422.46-22.55 423.81-22.95 424.46-23.35L424.46-23.35Q424.96-23.15 425.31-22.65 425.66-22.15 425.66-21.15L425.66-21.15 425.66-6.6Q425.66-4.1 426.33-3.2 427.01-2.3 428.66-2.25L428.66-2.25Q428.81-1.75 428.86-1.05 428.91-0.35 428.91 0.15L428.91 0.15Q428.11 0.1 427.11 0.08 426.11 0.05 425.01 0.03 423.91 0 422.86 0L422.86 0Q421.76 0 420.63 0.03 419.51 0.05 418.48 0.08 417.46 0.1 416.66 0.15ZM422.56-28.5L422.56-28.5Q421.11-28.5 420.18-29.38 419.26-30.25 419.26-31.55L419.26-31.55Q419.26-33.05 420.26-33.95 421.26-34.85 422.61-34.85L422.61-34.85Q424.16-34.85 425.06-33.95 425.96-33.05 425.96-31.6L425.96-31.6Q425.96-30.35 424.98-29.43 424.01-28.5 422.56-28.5ZM433.95 0.1L433.95 0.1Q433.6-0.3 433.35-0.9 433.1-1.5 433.1-2.15L433.1-2.15Q434.2-3.65 435.65-5.68 437.1-7.7 438.7-9.95 440.3-12.2 441.83-14.38 443.35-16.55 444.58-18.35 445.8-20.15 446.5-21.25L446.5-21.25 447.65-20.45 441.8-20.45Q440.1-20.45 439.1-20.05 438.1-19.65 437.55-18.53 437-17.4 436.55-15.25L436.55-15.25Q435.8-15.2 434.98-15.33 434.15-15.45 433.5-15.7L433.5-15.7Q433.7-17.35 433.8-19.25 433.9-21.15 433.9-23.05L433.9-23.05Q434.95-23 436.5-22.98 438.05-22.95 439.85-22.93 441.65-22.9 443.3-22.9L443.3-22.9Q444.95-22.9 446.65-22.93 448.35-22.95 449.83-22.98 451.3-23 452.3-23.05L452.3-23.05Q452.65-22.65 452.8-22 452.95-21.35 452.95-20.75L452.95-20.75Q451.65-18.85 449.88-16.32 448.1-13.8 446.2-11.1 444.3-8.4 442.5-5.95 440.7-3.5 439.35-1.75L439.35-1.75 438.75-2.5 445.6-2.5Q447.4-2.5 448.35-2.93 449.3-3.35 449.78-4.53 450.25-5.7 450.4-8.05L450.4-8.05Q451.1-8.1 451.83-8.03 452.55-7.95 453.4-7.75L453.4-7.75Q453.4-6.85 453.45-5.6 453.5-4.35 453.58-3.08 453.65-1.8 453.8-0.9L453.8-0.9Q453.3 0.1 452.05 0.1L452.05 0.1Q450.85 0.05 449.53 0.05 448.2 0.05 446.6 0.03 445 0 442.95 0L442.95 0Q439.65 0 437.48 0.03 435.3 0.05 433.95 0.1ZM468.8 0.45L468.8 0.45Q465.05 0.45 462.63-1.15 460.2-2.75 458.98-5.45 457.75-8.15 457.75-11.4L457.75-11.4Q457.75-14.7 459.05-17.4 460.35-20.1 462.78-21.73 465.2-23.35 468.5-23.35L468.5-23.35Q471.85-23.35 473.9-21.95 475.95-20.55 476.98-18.2 478-15.85 478.15-12.9L478.15-12.9Q477.95-11.75 477.3-11L477.3-11Q476.3-11 474.58-11 472.85-11 470.73-10.98 468.6-10.95 466.38-10.88 464.15-10.8 462.2-10.7L462.2-10.7 462.2-13.45 472.5-13.45Q472.5-16.75 471.38-18.75 470.25-20.75 468.15-20.75L468.15-20.75Q466.95-20.75 465.85-20 464.75-19.25 464.05-17.48 463.35-15.7 463.35-12.55L463.35-12.55Q463.35-10.05 464-7.78 464.65-5.5 466.2-4.08 467.75-2.65 470.6-2.65L470.6-2.65Q472.25-2.65 473.88-3.35 475.5-4.05 476.75-5.35L476.75-5.35Q477.15-5.15 477.53-4.6 477.9-4.05 477.95-3.55L477.95-3.55Q476.2-1.4 473.93-0.48 471.65 0.45 468.8 0.45ZM505.8-6.2L509.25-14.9Q510.5-17.95 509.87-19.07 509.25-20.2 507.2-20.6L507.2-20.6Q507-21.15 506.9-21.78 506.8-22.4 506.8-23L506.8-23Q507.95-22.95 509.17-22.93 510.4-22.9 511.75-22.9L511.75-22.9Q513.15-22.9 514.4-22.93 515.65-22.95 516.75-23L516.75-23Q516.75-22.45 516.7-21.83 516.65-21.2 516.4-20.6L516.4-20.6Q515.5-20.4 514.9-19.93 514.3-19.45 513.75-18.45 513.2-17.45 512.45-15.65L512.45-15.65 505.1 1.85Q503.7 5.25 502.55 7.35 501.4 9.45 500.4 10.55 499.4 11.65 498.4 12.05 497.4 12.45 496.25 12.45L496.25 12.45Q494.7 12.45 493.72 12 492.75 11.55 492.2 11.05L492.2 11.05Q492 10.25 492.05 9.08 492.1 7.9 492.3 7.15L492.3 7.15Q493.15 7.3 494.07 7.43 495 7.55 495.95 7.55L495.95 7.55Q497.4 7.55 498.67 6.88 499.95 6.2 500.9 4.7L500.9 4.7Q501.5 3.75 502.87 0.78 504.25-2.2 505.8-6.2L505.8-6.2ZM506-4.45L503.2 1.35Q501.95-1.35 500.6-4.35 499.25-7.35 498-10.13 496.75-12.9 495.8-14.9L495.8-14.9Q494.75-17.2 494-18.35 493.25-19.5 492.6-19.98 491.95-20.45 491.15-20.6L491.15-20.6Q491-21.1 490.9-21.73 490.8-22.35 490.8-23L490.8-23Q492.25-22.95 493.8-22.93 495.35-22.9 496.75-22.9L496.75-22.9Q498.2-22.9 500.17-22.93 502.15-22.95 503.7-23L503.7-23Q503.7-22.3 503.62-21.68 503.55-21.05 503.35-20.6L503.35-20.6Q500.75-20.15 500.37-19.1 500-18.05 501.35-15.35L501.35-15.35Q502.05-13.9 502.9-11.95 503.75-10 504.57-8.03 505.4-6.05 506-4.45L506-4.45ZM530.99 0.45L530.99 0.45Q527.44 0.45 524.82-1.03 522.19-2.5 520.77-5.15 519.34-7.8 519.34-11.4L519.34-11.4Q519.34-14.9 520.87-17.6 522.39-20.3 525.04-21.83 527.69-23.35 531.04-23.35L531.04-23.35Q534.79-23.35 537.39-21.85 539.99-20.35 541.34-17.7 542.69-15.05 542.69-11.5L542.69-11.5Q542.69-8.05 541.24-5.33 539.79-2.6 537.17-1.07 534.54 0.45 530.99 0.45ZM531.49-2.2L531.49-2.2Q534.29-2.2 535.64-4.58 536.99-6.95 536.99-10.75L536.99-10.75Q536.99-13.85 536.12-16.13 535.24-18.4 533.77-19.58 532.29-20.75 530.54-20.75L530.54-20.75Q527.79-20.75 526.44-18.45 525.09-16.15 525.09-12.55L525.09-12.55Q525.09-9.35 525.87-7 526.64-4.65 528.09-3.43 529.54-2.2 531.49-2.2ZM555.99 0.2L555.99 0.2Q552.54 0.2 550.62-1.75 548.69-3.7 548.69-8.75L548.69-8.75 548.69-15.8Q548.69-17.7 548.19-18.57 547.69-19.45 545.44-19.5L545.44-19.5Q545.44-20.1 545.52-20.63 545.59-21.15 545.84-21.65L545.84-21.65Q547.69-21.75 549.67-22.25 551.64-22.75 552.79-23.35L552.79-23.35Q553.29-23.15 553.64-22.65 553.99-22.15 553.99-21L553.99-21 553.99-9.9Q553.99-6.55 554.84-4.85 555.69-3.15 557.84-3.15L557.84-3.15Q560.19-3.15 561.79-5.2 563.39-7.25 563.39-11.55L563.39-11.55 563.39-16.05Q563.39-17.95 562.77-18.82 562.14-19.7 559.69-19.75L559.69-19.75Q559.69-20.35 559.74-20.88 559.79-21.4 560.09-21.9L560.09-21.9Q562.29-22 564.32-22.43 566.34-22.85 567.49-23.35L567.49-23.35Q567.99-23.15 568.34-22.65 568.69-22.15 568.69-21L568.69-21 568.69-6.65 564.09-4.8Q563.84-4.1 563.39-3.45 562.94-2.8 562.34-2.25L562.34-2.25Q561.09-1.05 559.59-0.43 558.09 0.2 555.99 0.2ZM565.19 0.45L565.19 0.45Q564.59 0.2 564.22-0.33 563.84-0.85 563.84-2.45L563.84-2.45Q563.84-3.05 563.94-4.08 564.04-5.1 564.34-6.7L564.34-6.7 568.69-7.25Q568.69-6 568.89-5.2 569.09-4.4 569.74-4.05 570.39-3.7 571.74-3.7L571.74-3.7Q571.74-3.1 571.69-2.4 571.64-1.7 571.39-1.1L571.39-1.1Q569.99-1.05 568.24-0.65 566.49-0.25 565.19 0.45ZM584.34-11.35L584.34-7.75Q584.34-5.6 584.79-4.45 585.24-3.3 586.26-2.85 587.29-2.4 588.94-2.25L588.94-2.25Q589.09-1.8 589.16-1.2 589.24-0.6 589.24 0.15L589.24 0.15Q588.44 0.1 587.34 0.08 586.24 0.05 584.99 0.03 583.74 0 582.49 0L582.49 0Q580.59 0 578.54 0.03 576.49 0.05 575.34 0.15L575.34 0.15Q575.34-0.65 575.39-1.25 575.44-1.85 575.64-2.25L575.64-2.25Q576.99-2.35 577.71-2.75 578.44-3.15 578.74-4.1 579.04-5.05 579.04-6.8L579.04-6.8 579.04-11.35 584.34-11.35ZM583.44-15.3L584.34-14.65 584.34-10.6 579.04-10.6 579.04-16.15 584.34-21Q584.34-19.45 584.04-18.1 583.74-16.75 583.44-15.3L583.44-15.3ZM584.34-11.9L583.24-15Q583.74-16.35 584.06-17.32 584.39-18.3 584.74-18.9L584.74-18.9Q585.84-20.65 587.36-21.8 588.89-22.95 590.89-22.95L590.89-22.95Q592.79-22.95 594.34-21.75L594.34-21.75Q594.24-20.9 594.14-19.78 594.04-18.65 594.01-17.53 593.99-16.4 593.99-15.45L593.99-15.45Q593.44-15.25 592.54-15.1 591.64-14.95 590.74-14.95L590.74-14.95Q590.64-17.2 590.01-17.98 589.39-18.75 588.39-18.75L588.39-18.75Q587.59-18.75 586.61-17.8 585.64-16.85 584.99-15.3 584.34-13.75 584.34-11.9L584.34-11.9ZM584.34-21L579.04-10.6 579.04-15.8Q579.04-17.1 578.81-17.88 578.59-18.65 577.79-19.05 576.99-19.45 575.34-19.5L575.34-19.5Q575.34-20.1 575.44-20.65 575.54-21.2 575.79-21.65L575.79-21.65Q577.69-21.75 579.84-22.25 581.99-22.75 583.14-23.35L583.14-23.35Q583.64-23.15 583.99-22.65 584.34-22.15 584.34-21L584.34-21ZM615.98 0.45L615.98 0.45Q612.88 0.45 611.36-1.15 609.83-2.75 609.83-6.4L609.83-6.4 609.83-19.3Q609.08-19.55 608.26-19.73 607.43-19.9 606.23-19.95L606.23-19.95Q606.23-20.65 606.33-21.2 606.43-21.75 606.68-22.4L606.68-22.4 609.83-22.4 609.83-28.85Q611.03-29.1 612.21-29.7 613.38-30.3 614.18-31L614.18-31Q614.73-30.8 614.93-30.35 615.13-29.9 615.13-28.25L615.13-28.25 615.13-22.4 621.53-22.4Q621.53-21.8 621.43-21.15 621.33-20.5 621.08-19.9L621.08-19.9Q619.28-19.9 617.81-19.7 616.33-19.5 615.13-19.25L615.13-19.25 615.13-7.4Q615.13-5.65 615.46-4.58 615.78-3.5 616.41-3 617.03-2.5 617.93-2.5L617.93-2.5Q618.93-2.5 619.71-2.78 620.48-3.05 621.18-3.6L621.18-3.6Q621.83-2.8 621.93-1.7L621.93-1.7Q621.08-0.8 619.38-0.18 617.68 0.45 615.98 0.45ZM634.03-11.35L634.03-7.75Q634.03-5.6 634.48-4.45 634.93-3.3 635.96-2.85 636.98-2.4 638.63-2.25L638.63-2.25Q638.78-1.8 638.86-1.2 638.93-0.6 638.93 0.15L638.93 0.15Q638.13 0.1 637.03 0.08 635.93 0.05 634.68 0.03 633.43 0 632.18 0L632.18 0Q630.28 0 628.23 0.03 626.18 0.05 625.03 0.15L625.03 0.15Q625.03-0.65 625.08-1.25 625.13-1.85 625.33-2.25L625.33-2.25Q626.68-2.35 627.41-2.75 628.13-3.15 628.43-4.1 628.73-5.05 628.73-6.8L628.73-6.8 628.73-11.35 634.03-11.35ZM633.13-15.3L634.03-14.65 634.03-10.6 628.73-10.6 628.73-16.15 634.03-21Q634.03-19.45 633.73-18.1 633.43-16.75 633.13-15.3L633.13-15.3ZM634.03-11.9L632.93-15Q633.43-16.35 633.76-17.32 634.08-18.3 634.43-18.9L634.43-18.9Q635.53-20.65 637.06-21.8 638.58-22.95 640.58-22.95L640.58-22.95Q642.48-22.95 644.03-21.75L644.03-21.75Q643.93-20.9 643.83-19.78 643.73-18.65 643.71-17.53 643.68-16.4 643.68-15.45L643.68-15.45Q643.13-15.25 642.23-15.1 641.33-14.95 640.43-14.95L640.43-14.95Q640.33-17.2 639.71-17.98 639.08-18.75 638.08-18.75L638.08-18.75Q637.28-18.75 636.31-17.8 635.33-16.85 634.68-15.3 634.03-13.75 634.03-11.9L634.03-11.9ZM634.03-21L628.73-10.6 628.73-15.8Q628.73-17.1 628.51-17.88 628.28-18.65 627.48-19.05 626.68-19.45 625.03-19.5L625.03-19.5Q625.03-20.1 625.13-20.65 625.23-21.2 625.48-21.65L625.48-21.65Q627.38-21.75 629.53-22.25 631.68-22.75 632.83-23.35L632.83-23.35Q633.33-23.15 633.68-22.65 634.03-22.15 634.03-21L634.03-21ZM662.48 0.45L662.48 0.45Q661.88 0.2 661.53-0.48 661.18-1.15 661.18-2.5L661.18-2.5Q661.18-3 661.25-3.68 661.33-4.35 661.48-4.95L661.48-4.95 661.63-4.95Q661.43-4 660.85-3.05 660.28-2.1 659.43-1.35L659.43-1.35Q658.53-0.6 657.18-0.13 655.83 0.35 653.98 0.35L653.98 0.35Q650.78 0.35 649.05-1.07 647.33-2.5 647.33-5.05L647.33-5.05Q647.33-7 648.25-8.38 649.18-9.75 650.65-10.68 652.13-11.6 653.88-12.15 655.63-12.7 657.35-13.03 659.08-13.35 660.48-13.55L660.48-13.55Q660.48-15.45 660.4-16.55 660.33-17.65 660.1-18.32 659.88-19 659.43-19.5L659.43-19.5Q658.83-20.2 658.08-20.55 657.33-20.9 656.43-20.9L656.43-20.9Q654.83-20.9 653.93-19.93 653.03-18.95 652.63-17.63 652.23-16.3 652.13-15.15L652.13-15.15Q651.43-15.15 650.53-15.25 649.63-15.35 649.08-15.55L649.08-15.55Q649.18-16.85 649.15-18.4 649.13-19.95 648.83-21.15L648.83-21.15Q650.93-22.2 653.33-22.78 655.73-23.35 657.78-23.35L657.78-23.35Q659.93-23.35 661.38-22.8 662.83-22.25 663.63-21.35L663.63-21.35Q664.88-20.15 665.33-18.18 665.78-16.2 665.78-12.8L665.78-12.8 665.78-7.65Q665.78-6.2 666-5.35 666.23-4.5 666.88-4.13 667.53-3.75 668.83-3.7L668.83-3.7Q668.88-3.1 668.8-2.4 668.73-1.7 668.48-1.1L668.48-1.1Q667.08-1.05 665.43-0.65 663.78-0.25 662.48 0.45ZM655.68-2.8L655.68-2.8Q656.78-2.8 657.88-3.53 658.98-4.25 659.73-5.73 660.48-7.2 660.48-9.6L660.48-9.6 660.48-11.35Q659.18-11.15 657.83-10.85 656.48-10.55 655.35-10 654.23-9.45 653.55-8.55 652.88-7.65 652.88-6.15L652.88-6.15Q652.88-4.4 653.73-3.6 654.58-2.8 655.68-2.8ZM672.43 0.15L672.43 0.15Q672.43-0.45 672.5-1.1 672.58-1.75 672.73-2.25L672.73-2.25Q674.73-2.3 675.43-3.2 676.13-4.1 676.13-6.6L676.13-6.6 676.13-15.95Q676.13-17.15 675.9-17.93 675.68-18.7 674.88-19.1 674.08-19.5 672.38-19.5L672.38-19.5Q672.38-20.1 672.5-20.65 672.63-21.2 672.88-21.65L672.88-21.65Q673.88-21.65 675.38-21.9 676.88-22.15 678.23-22.55 679.58-22.95 680.23-23.35L680.23-23.35Q680.73-23.15 681.08-22.65 681.43-22.15 681.43-21.15L681.43-21.15 681.43-6.6Q681.43-4.1 682.1-3.2 682.78-2.3 684.43-2.25L684.43-2.25Q684.58-1.75 684.63-1.05 684.68-0.35 684.68 0.15L684.68 0.15Q683.88 0.1 682.88 0.08 681.88 0.05 680.78 0.03 679.68 0 678.63 0L678.63 0Q677.53 0 676.4 0.03 675.28 0.05 674.25 0.08 673.23 0.1 672.43 0.15ZM678.33-28.5L678.33-28.5Q676.88-28.5 675.95-29.38 675.03-30.25 675.03-31.55L675.03-31.55Q675.03-33.05 676.03-33.95 677.03-34.85 678.38-34.85L678.38-34.85Q679.93-34.85 680.83-33.95 681.73-33.05 681.73-31.6L681.73-31.6Q681.73-30.35 680.75-29.43 679.78-28.5 678.33-28.5ZM697.22-21L691.92-10.6 691.92-15.8Q691.92-17.1 691.7-17.88 691.47-18.65 690.67-19.05 689.87-19.45 688.22-19.5L688.22-19.5Q688.22-20.1 688.32-20.65 688.42-21.2 688.67-21.65L688.67-21.65Q690.57-21.75 692.72-22.25 694.87-22.75 696.02-23.35L696.02-23.35Q696.52-23.15 696.87-22.65 697.22-22.15 697.22-21L697.22-21ZM712.32-14.95L712.32-6.6Q712.32-4.05 713-3.15 713.67-2.25 715.17-2.25L715.17-2.25Q715.32-1.75 715.37-1.2 715.42-0.65 715.42 0.15L715.42 0.15Q714.32 0.05 712.82 0.03 711.32 0 709.77 0L709.77 0Q708.72 0 707.55 0.03 706.37 0.05 705.32 0.08 704.27 0.1 703.47 0.15L703.47 0.15Q703.47-0.6 703.52-1.2 703.57-1.8 703.77-2.25L703.77-2.25Q705.42-2.25 706.22-3.2 707.02-4.15 707.02-6.7L707.02-6.7 707.02-13.65Q707.02-17.1 705.82-18.35 704.62-19.6 702.62-19.6L702.62-19.6Q701.37-19.6 700.12-18.75 698.87-17.9 698.05-16.1 697.22-14.3 697.22-11.35L697.22-11.35 697.22-6.6Q697.22-4.1 697.95-3.18 698.67-2.25 700.47-2.25L700.47-2.25Q700.67-1.75 700.72-1.18 700.77-0.6 700.77 0.15L700.77 0.15Q700.07 0.1 699.02 0.08 697.97 0.05 696.82 0.03 695.67 0 694.57 0L694.57 0Q693.52 0 692.35 0.03 691.17 0.05 690.07 0.08 688.97 0.1 688.22 0.15L688.22 0.15Q688.22-0.6 688.3-1.23 688.37-1.85 688.52-2.25L688.52-2.25Q690.47-2.25 691.2-3.18 691.92-4.1 691.92-6.6L691.92-6.6 691.92-15.8 697.22-21Q697.22-20.4 697.15-19.65 697.07-18.9 696.82-18.05L696.82-18.05Q697.02-18.4 697.22-18.8 697.42-19.2 697.77-19.65L697.77-19.65Q698.67-20.8 700.52-21.95 702.37-23.1 704.92-23.1L704.92-23.1Q706.87-23.1 708.57-22.33 710.27-21.55 711.3-19.78 712.32-18 712.32-14.95L712.32-14.95ZM719.02 0.15L719.02 0.15Q719.02-0.45 719.1-1.1 719.17-1.75 719.32-2.25L719.32-2.25Q721.32-2.3 722.02-3.2 722.72-4.1 722.72-6.6L722.72-6.6 722.72-15.95Q722.72-17.15 722.5-17.93 722.27-18.7 721.47-19.1 720.67-19.5 718.97-19.5L718.97-19.5Q718.97-20.1 719.1-20.65 719.22-21.2 719.47-21.65L719.47-21.65Q720.47-21.65 721.97-21.9 723.47-22.15 724.82-22.55 726.17-22.95 726.82-23.35L726.82-23.35Q727.32-23.15 727.67-22.65 728.02-22.15 728.02-21.15L728.02-21.15 728.02-6.6Q728.02-4.1 728.7-3.2 729.37-2.3 731.02-2.25L731.02-2.25Q731.17-1.75 731.22-1.05 731.27-0.35 731.27 0.15L731.27 0.15Q730.47 0.1 729.47 0.08 728.47 0.05 727.37 0.03 726.27 0 725.22 0L725.22 0Q724.12 0 723 0.03 721.87 0.05 720.85 0.08 719.82 0.1 719.02 0.15ZM724.92-28.5L724.92-28.5Q723.47-28.5 722.55-29.38 721.62-30.25 721.62-31.55L721.62-31.55Q721.62-33.05 722.62-33.95 723.62-34.85 724.97-34.85L724.97-34.85Q726.52-34.85 727.42-33.95 728.32-33.05 728.32-31.6L728.32-31.6Q728.32-30.35 727.35-29.43 726.37-28.5 724.92-28.5ZM743.82-21L738.52-10.6 738.52-15.8Q738.52-17.1 738.29-17.88 738.07-18.65 737.27-19.05 736.47-19.45 734.82-19.5L734.82-19.5Q734.82-20.1 734.92-20.65 735.02-21.2 735.27-21.65L735.27-21.65Q737.17-21.75 739.32-22.25 741.47-22.75 742.62-23.35L742.62-23.35Q743.12-23.15 743.47-22.65 743.82-22.15 743.82-21L743.82-21ZM758.92-14.95L758.92-6.6Q758.92-4.05 759.59-3.15 760.27-2.25 761.77-2.25L761.77-2.25Q761.92-1.75 761.97-1.2 762.02-0.65 762.02 0.15L762.02 0.15Q760.92 0.05 759.42 0.03 757.92 0 756.37 0L756.37 0Q755.32 0 754.14 0.03 752.97 0.05 751.92 0.08 750.87 0.1 750.07 0.15L750.07 0.15Q750.07-0.6 750.12-1.2 750.17-1.8 750.37-2.25L750.37-2.25Q752.02-2.25 752.82-3.2 753.62-4.15 753.62-6.7L753.62-6.7 753.62-13.65Q753.62-17.1 752.42-18.35 751.22-19.6 749.22-19.6L749.22-19.6Q747.97-19.6 746.72-18.75 745.47-17.9 744.64-16.1 743.82-14.3 743.82-11.35L743.82-11.35 743.82-6.6Q743.82-4.1 744.54-3.18 745.27-2.25 747.07-2.25L747.07-2.25Q747.27-1.75 747.32-1.18 747.37-0.6 747.37 0.15L747.37 0.15Q746.67 0.1 745.62 0.08 744.57 0.05 743.42 0.03 742.27 0 741.17 0L741.17 0Q740.12 0 738.94 0.03 737.77 0.05 736.67 0.08 735.57 0.1 734.82 0.15L734.82 0.15Q734.82-0.6 734.89-1.23 734.97-1.85 735.12-2.25L735.12-2.25Q737.07-2.25 737.79-3.18 738.52-4.1 738.52-6.6L738.52-6.6 738.52-15.8 743.82-21Q743.82-20.4 743.74-19.65 743.67-18.9 743.42-18.05L743.42-18.05Q743.62-18.4 743.82-18.8 744.02-19.2 744.37-19.65L744.37-19.65Q745.27-20.8 747.12-21.95 748.97-23.1 751.52-23.1L751.52-23.1Q753.47-23.1 755.17-22.33 756.87-21.55 757.89-19.78 758.92-18 758.92-14.95L758.92-14.95ZM774.67 12.45L774.67 12.45Q771.47 12.45 769.49 11.68 767.52 10.9 766.62 9.43 765.72 7.95 765.72 5.85L765.72 5.85Q765.72 3.95 766.77 2.55 767.82 1.15 769.72 0.4L769.72 0.4 772.47 0.7Q771.32 1.65 770.89 2.58 770.47 3.5 770.47 4.75L770.47 4.75Q770.47 7.15 771.72 8.38 772.97 9.6 775.97 9.6L775.97 9.6Q779.22 9.6 781.07 8.08 782.92 6.55 782.92 4.5L782.92 4.5Q782.92 3.35 782.34 2.68 781.77 2 780.12 1.68 778.47 1.35 775.27 1.35L775.27 1.35Q773.07 1.35 771.52 1.13 769.97 0.9 768.97 0.38 767.97-0.15 767.52-1.03 767.07-1.9 767.07-3.25L767.07-3.25Q767.07-5.05 768.07-6.6 769.07-8.15 770.57-9.35L770.57-9.35 772.87-8.05Q771.97-7.3 771.54-6.63 771.12-5.95 771.12-5.4L771.12-5.4Q771.12-4.5 771.69-4.08 772.27-3.65 773.89-3.53 775.52-3.4 778.52-3.4L778.52-3.4Q781.77-3.4 783.77-2.85 785.77-2.3 786.72-1.07 787.67 0.15 787.67 2.3L787.67 2.3Q787.67 4.1 786.72 5.93 785.77 7.75 784.04 9.2 782.32 10.65 779.92 11.55 777.52 12.45 774.67 12.45ZM776.02-6.95L776.02-6.95Q773.42-6.95 771.22-7.85 769.02-8.75 767.74-10.55 766.47-12.35 766.47-15.05L766.47-15.05Q766.47-17.45 767.52-19.3 768.57-21.15 770.67-22.25 772.77-23.35 775.82-23.35L775.82-23.35Q778.47-23.35 780.29-22.53 782.12-21.7 783.32-20.43 784.52-19.15 785.04-17.75 785.57-16.35 785.57-15.2L785.57-15.2Q785.57-12.95 784.49-11.05 783.42-9.15 781.29-8.05 779.17-6.95 776.02-6.95ZM776.62-9.45L776.62-9.45Q778.22-9.45 779.22-10.78 780.22-12.1 780.22-14.65L780.22-14.65Q780.22-17.3 778.99-19.15 777.77-21 775.52-21L775.52-21Q773.62-21 772.72-19.4 771.82-17.8 771.82-15.7L771.82-15.7Q771.82-12.7 773.09-11.08 774.37-9.45 776.62-9.45ZM788.12-19.6L788.12-19.6Q787.32-19.8 786.24-20 785.17-20.2 784.14-20.35 783.12-20.5 782.32-20.55L782.32-20.55 778.42-22.9 787.72-22.9Q787.97-22.2 788.04-21.33 788.12-20.45 788.12-19.6ZM808.16-21.65L808.16-21.65Q808.11-20.4 808.11-19.05 808.11-17.7 808.31-16.4L808.31-16.4Q807.76-16.1 806.99-15.93 806.21-15.75 805.41-15.75L805.41-15.75Q805.31-17.1 804.64-18.3 803.96-19.5 802.81-20.25 801.66-21 800.06-21L800.06-21Q798.61-21 797.76-20.3 796.91-19.6 796.91-18.45L796.91-18.45Q796.91-17.65 797.26-17.03 797.61-16.4 798.86-15.68 800.11-14.95 802.71-13.9L802.71-13.9Q805.46-12.9 807.01-11.88 808.56-10.85 809.24-9.63 809.91-8.4 809.91-6.6L809.91-6.6Q809.91-4.5 808.69-2.9 807.46-1.3 805.29-0.43 803.11 0.45 800.36 0.45L800.36 0.45Q797.31 0.45 795.49-0.03 793.66-0.5 791.86-1.35L791.86-1.35Q792.01-2.2 792.04-3.35 792.06-4.5 792.06-5.63 792.06-6.75 791.96-7.55L791.96-7.55Q792.41-7.9 793.26-8.05 794.11-8.2 794.91-8.2L794.91-8.2Q795.31-5.15 796.79-3.65 798.26-2.15 800.71-2.15L800.71-2.15Q802.56-2.15 803.64-2.98 804.71-3.8 804.71-5.15L804.71-5.15Q804.71-6 804.29-6.65 803.86-7.3 802.76-7.93 801.66-8.55 799.46-9.4L799.46-9.4Q796.86-10.45 795.24-11.4 793.61-12.35 792.86-13.68 792.11-15 792.11-17.05L792.11-17.05Q792.11-18.65 792.91-19.85 793.71-21.05 794.99-21.83 796.26-22.6 797.79-22.98 799.31-23.35 800.71-23.35L800.71-23.35Q803.11-23.35 804.86-22.93 806.61-22.5 808.16-21.65Z" opacity="1" transform="matrix(1,0,0,1,0,0)" fill="#2a2c35" class="slogan-text-1" data-fill-palette-color="secondary" id="text-1"></path></svg></g></svg></g></svg></g></svg></g></svg></g></svg></g></svg></g><path d="M194.024 91.817L194.024 28.588 4 28.588 4 218.612 194.024 218.612 194.024 155.383 190.866 155.383 190.866 215.454 7.158 215.454 7.158 31.746 190.866 31.746 190.866 91.817Z" fill="#2a2c35" stroke="transparent" data-fill-palette-color="tertiary"></path></svg></g><defs></defs></svg><rect width="395.52" height="247.2" fill="none" stroke="none" visibility="hidden"></rect></g></svg></g></svg>